inDegrees=yes
name=ik_S53_A03_T02
DataType=double
version=3
OpenSimVersion=4.3-2021-08-27-4bc7ad9
endheader
time	pelvis_tilt	pelvis_list	pelvis_rotation	pelvis_tx	pelvis_ty	pelvis_tz	hip_flexion_r	hip_adduction_r	hip_rotation_r	knee_angle_r	knee_angle_r_beta	ankle_angle_r	subtalar_angle_r	mtp_angle_r	hip_flexion_l	hip_adduction_l	hip_rotation_l	knee_angle_l	knee_angle_l_beta	ankle_angle_l	subtalar_angle_l	mtp_angle_l	lumbar_extension	lumbar_bending	lumbar_rotation	arm_flex_r	arm_add_r	arm_rot_r	elbow_flex_r	pro_sup_r	wrist_flex_r	wrist_dev_r	arm_flex_l	arm_add_l	arm_rot_l	elbow_flex_l	pro_sup_l	wrist_flex_l	wrist_dev_l
11.86666666666684	0.8638087366870684	-0.09861874932888987	98.88602426939065	0	0.9399999999999999	0	-8.569930944559591	4.844893038461457	9.463879332134841	-3.332456428991844	-0.0581623368651603	0	0	0	18.33373777642455	-0.4008982212988625	0.9511418647594273	-3.194153499772746	-0.05574849538513436	0	0	0	0	0	0	28.4203514117234	-28.4203514117234	4.107513403355745	73.01067443310809	85.89248682810063	0	0	28.4203514117234	-28.4203514117234	4.107513403355745	73.01067443310809	85.89248682793416	0	0
11.8833333333335	0.8663875636283818	-0.09903939165300119	98.8821959436706	0	0.9399999999999999	0	-9.275677803158354	4.881128464658399	8.883020045511985	-2.853584991485834	-0.04980445358692217	0	0	0	18.10450393096714	-0.1312295485527893	-1.214997436360157	-5.730844336165299	-0.1000221025853532	0	0	0	0	0	0	28.41181234423261	-28.41181234423261	4.106867612634571	73.00202879304463	85.89313261878959	0	0	28.41181234423261	-28.41181234423261	4.106867612634571	73.00202879304463	85.893132618623	0	0
11.90000000000017	0.8830146990595549	-0.03481123231401447	98.55870202795818	0	0.9399999999999999	0	-10.00450642222296	4.901958080059128	8.738900872868459	-2.200823341291131	-0.0384116135602731	0	0	0	17.73393795525527	0.03849970122332663	-2.988257956951318	-7.427775839136058	-0.1296391444930089	0	0	0	0	0	0	28.39905528734498	-28.39905528734498	4.105834624231463	72.98813778818196	85.89416560714041	0	0	28.39905528734498	-28.39905528734498	4.105834624231463	72.98813778818196	85.89416560697369	0	0
11.91666666666684	0.8601770423130491	0.04757081015632127	98.23324836139672	0	0.9399999999999999	0	-10.66504879479933	4.881339577884604	8.661296635131205	-1.352129488880213	-0.02359911149426777	0	0	0	17.38717886545469	0.3092008055574861	-4.040346565150284	-7.893921077750472	-0.137774913699325	0	0	0	0	0	0	28.40235214793571	-28.40235214793571	4.106186004156932	72.99293306435241	85.89381422723346	0	0	28.40235214793571	-28.40235214793571	4.106186004156932	72.99293306435241	85.89381422706687	0	0
11.93333333333351	0.7819936943034748	0.07384128286988423	97.89430291628933	0	0.9399999999999999	0	-11.32008430448677	4.789731434998505	8.595080105736722	-0.4686501928138483	-0.008179488904707922	0	0	0	17.01322648881116	0.4169162336097909	-3.50981604491405	-7.551467292332572	-0.1317979676078645	0	0	0	0	0	0	28.40598906485606	-28.40598906485606	4.106574257317096	72.99823190189706	85.89342597409384	0	0	28.40598906485606	-28.40598906485606	4.106574257317096	72.99823190189706	85.89342597392726	0	0
11.95000000000017	0.7070201842652951	0.02642437757678168	97.54697994987417	0	0.9399999999999999	0	-11.69095223456712	4.640626266550798	8.58612601542807	-0.6870317215754344	-0.01199096560713629	0	0	0	17.03514684088992	0.3958347748657495	-3.854181826474122	-7.590325638007879	-0.1324761736817767	0	0	0	0	0	0	28.40894666747971	-28.40894666747971	4.106890105807752	73.00254266511202	85.89311012561991	0	0	28.40894666747971	-28.40894666747971	4.106890105807752	73.00254266511202	85.89311012545335	0	0
11.96666666666684	0.5802948494834556	0.02590484197819137	97.16011124391024	0	0.9399999999999999	0	-12.20140264247054	4.437281243583652	8.173239864085284	0.4586025417923493	0.008004124312291392	0	0	0	16.46887214012187	0.3723335293174951	-2.489513943867449	-7.01983188495092	-0.1225191793288733	0	0	0	0	0	0	28.44806408180351	-28.44806408180351	4.110482966825847	73.05119978177994	85.8895172647874	0	0	28.44806408180351	-28.44806408180351	4.110482966825847	73.05119978177994	85.88951726462152	0	0
11.98333333333351	0.4374046616364344	0.04602411925382441	96.76432167584227	0	0.9399999999999999	0	-12.44246170786819	4.210493594350066	8.150799702236089	1.849299098115232	0.03227635811627246	0	0	0	16.54265841568761	0.5059127651769424	-2.387711764659322	-6.119724087976827	-0.1068093346488028	0	0	0	0	0	0	28.45289150489448	-28.45289150489448	4.110996972642883	73.05821323103484	85.8890032589975	0	0	28.45289150489448	-28.45289150489448	4.110996972642883	73.05821323103484	85.88900325883171	0	0
12.00000000000018	0.4409298645698787	0.001175693358100917	96.79068437420321	0	0.9399999999999999	0	-12.88684597958436	4.148861880875673	7.092781819288922	3.228553309356115	0.05634888532442325	0	0	0	15.89136791040475	0.4779929116247259	0.4896869757168483	-6.541614132293406	-0.1141727050035118	0	0	0	0	0	0	28.47621659419825	-28.47621659419825	4.113178997691837	73.08779246594705	85.88682123406159	0	0	28.47621659419825	-28.47621659419825	4.113178997691837	73.08779246594705	85.88682123389626	0	0
12.01666666666684	0.4432111912581825	-0.02230484249700054	96.76624864004073	0	0.9399999999999999	0	-13.20299411061117	4.035466358758494	5.927858272292347	4.928645713284916	0.08602109536112622	0	0	0	13.52718936558518	0.7832278334948543	1.284535666279188	-7.865919850844871	-0.1372862000952243	0	0	0	0	0	0	28.4890743019407	-28.4890743019407	4.114419369187069	73.1046327773867	85.88558086263086	0	0	28.4890743019407	-28.4890743019407	4.114419369187069	73.1046327773867	85.88558086246584	0	0
12.03333333333351	0.02465598690271434	-0.2263881397362951	96.55953297546301	0	0.9399999999999999	0	-13.25528541148845	3.323984911050952	4.721505921058515	6.888035534110083	0.1202188990645871	0	0	0	12.52047024382524	1.370420365640791	2.946632527791521	-7.903719722769676	-0.1379459323171443	0	0	0	0	0	0	28.5249764049941	-28.5249764049941	4.117715098688256	73.14926335853919	85.88228513329989	0	0	28.5249764049941	-28.5249764049941	4.117715098688256	73.14926335853919	85.88228513313547	0	0
12.05000000000018	-0.4014559200209836	-0.539274360522203	96.43453094054327	0	0.9399999999999999	0	-12.66109218986901	2.442300033116348	3.357701204602093	9.502250475066162	0.1658455571390999	0	0	0	11.8462524121347	1.675647164626503	3.97630638730372	-7.929405211229045	-0.1383942286607433	0	0	0	0	0	0	28.58341795907469	-28.58341795907469	4.123068878239485	73.22175384157001	85.87693135402506	0	0	28.58341795907469	-28.58341795907469	4.123068878239485	73.22175384157001	85.87693135386168	0	0
12.06666666666685	-1.004729184447962	-0.6621036966150784	96.32223041840108	0	0.9399999999999999	0	-12.94560918967485	1.645545863052603	2.105017142078236	11.46894245097119	0.2001708074911956	0	0	0	11.1007118894312	1.999976423740504	4.311691322827635	-8.756669404733145	-0.1528327126212453	0	0	0	0	0	0	28.6081219196762	-28.6081219196762	4.125364482669868	73.25285740293089	85.87463574971341	0	0	28.6081219196762	-28.6081219196762	4.125364482669868	73.25285740293089	85.87463574955042	0	0
12.08333333333351	-1.503965772123243	-0.741585340275464	96.33807249023687	0	0.9399999999999999	0	-11.83674516496677	0.7476845133176179	0.4813444654760323	15.14813034310907	0.2643847500085115	0	0	0	10.03505182547465	2.249245377861643	4.372585574391135	-9.215312897225099	-0.1608375516580758	0	0	0	0	0	0	28.72389162386446	-28.72389162386446	4.136283977074731	73.40090379394267	85.86371625587468	0	0	28.72389162386446	-28.72389162386446	4.136283977074731	73.40090379394267	85.86371625571371	0	0
12.10000000000018	-1.826750233521903	-0.7717602213275305	96.42222084845324	0	0.9399999999999999	0	-9.822818625806217	0.04165602851695405	0.7666153219208269	16.9918702207932	0.2965640814244171	0	0	0	9.874477017359951	2.836417756230488	4.334079314854525	-8.426304566048385	-0.1470667584533763	0	0	0	0	0	0	28.88070842037476	-28.88070842037476	4.151172999061373	73.60278930846725	85.84882723466058	0	0	28.88070842037476	-28.88070842037476	4.151172999061373	73.60278930846725	85.84882723450242	0	0
12.11666666666685	-1.994229438454723	-0.8320274879379773	96.44358443652654	0	0.9399999999999999	0	-9.770897386100849	-0.1256348084849144	0.7093981068463524	17.03247043392297	0.297272688820543	0	0	0	8.704231126332518	3.214526908449288	3.926149646641197	-8.396671889278409	-0.146549570677561	0	0	0	0	0	0	28.88367591926507	-28.88367591926507	4.151482553365095	73.60700510218037	85.84851768037315	0	0	28.88367591926507	-28.88367591926507	4.151482553365095	73.60700510218037	85.84851768021508	0	0
12.13333333333352	-2.12005098947628	-0.9744481801007265	96.34894907004833	0	0.9399999999999999	0	-9.715687718746585	-0.2443740118812184	0.4060775177090005	19.65377139034914	0.3430230211958561	0	0	0	7.756621349781198	3.716747881215405	3.21818251682524	-8.216492197028405	-0.1434048418025683	0	0	0	0	0	0	28.9506868188492	-28.9506868188492	4.157496091612419	73.68833027898248	85.84250414243502	0	0	28.9506868188492	-28.9506868188492	4.157496091612419	73.68833027898248	85.84250414227805	0	0
12.15000000000018	-2.131515746595464	-0.9616947670537338	96.27917085342006	0	0.9399999999999999	0	-6.27678837686875	-1.12932508618428	0.02496057905400434	25.89337218977335	0.451924599155879	0	0	0	6.810210446004585	3.966802432707581	2.835142192172138	-8.003313883681331	-0.1396841783408137	0	0	0	0	0	0	29.19833865288546	-29.19833865288546	4.179349980142522	73.98355676408224	85.82065025502432	0	0	29.19833865288546	-29.19833865288546	4.179349980142522	73.98355676408224	85.82065025487144	0	0
12.16666666666685	-2.330649753029748	-1.188995505712704	96.09351437545763	0	0.9399999999999999	0	-4.40607889709676	-1.946713024304626	-0.8048924283076678	30.50308495598758	0.5323792644975329	0	0	0	6.15191303045337	4.197844989060061	3.049882451519654	-7.961261622344542	-0.1389502279225776	0	0	0	0	0	0	29.20606543875463	-29.20606543875463	4.180145632551665	73.9943801462102	85.81985460265697	0	0	29.20606543875463	-29.20606543875463	4.180145632551665	73.9943801462102	85.81985460250428	0	0
12.18333333333352	-2.683137810954614	-1.339081640263059	95.85337902407727	0	0.9399999999999999	0	-2.758720064777258	-3.08236248252451	-1.794433001315054	34.42683270838154	0.6008615817945346	0	0	0	5.450510468838168	4.593722092389332	3.307076244954783	-7.957075881741219	-0.1388771729674152	0	0	0	0	0	0	29.20911662801509	-29.20911662801509	4.180459935867619	73.99865571983077	85.81954029935757	0	0	29.20911662801509	-29.20911662801509	4.180459935867619	73.99865571983077	85.81954029920489	0	0
12.20000000000019	-2.872133941228054	-1.335047561460842	95.74118372310527	0	0.9399999999999999	0	-1.285193819127619	-3.644375699664033	-2.264884060536108	35.97737846179826	0.6279237103944726	0	0	0	5.460644455428902	4.846601040836859	3.235384827485073	-7.155535675644277	-0.1248876572839097	0	0	0	0	0	0	29.2157862518791	-29.2157862518791	4.181147044510874	74.00800248571399	85.8188531907504	0	0	29.2157862518791	-29.2157862518791	4.181147044510874	74.00800248571399	85.81885319059788	0	0
12.21666666666685	-3.176455250642735	-1.153034550613735	95.59794066068628	0	0.9399999999999999	0	-0.2114922034359404	-5.151951403473408	-3.247855220592078	39.03347753262925	0.6812627014476127	0	0	0	5.257719733975078	5.117394677938766	3.074456322728291	-7.166444364066361	-0.1250780498139492	0	0	0	0	0	0	29.22347477036929	-29.22347477036929	4.181938423209213	74.01876706833646	85.81806181209362	0	0	29.22347477036929	-29.22347477036929	4.181938423209213	74.01876706833646	85.81806181194125	0	0
12.23333333333352	-3.310423435400465	-0.8955086972211476	95.67763021225947	0	0.9399999999999999	0	0.9730468588914001	-5.858926189443549	-3.474763203995879	40.06916745566519	0.6993389006343167	0	0	0	4.116081641356601	5.389617198195933	3.401438178788782	-7.267069661471161	-0.1268342925644615	0	0	0	0	0	0	29.22709421231971	-29.22709421231971	4.182309750598131	74.02381724653566	85.81769048472425	0	0	29.22709421231971	-29.22709421231971	4.182309750598131	74.02381724653566	85.81769048457191	0	0
12.25000000000019	-3.1204941096363	-0.9586209611963481	95.99883062772878	0	0.9399999999999999	0	1.058712248451609	-5.685059638175287	-3.792120277531446	40.11126758797565	0.7000736865586594	0	0	0	3.321969325421596	5.355857731839906	4.227279429656391	-7.339962234883368	-0.1281065079707562	0	0	0	0	0	0	29.22897564056801	-29.22897564056801	4.182503173795156	74.02644810384317	85.81749706153741	0	0	29.22897564056801	-29.22897564056801	4.182503173795156	74.02644810384317	85.81749706138508	0	0
